<svg width="21" height="21" viewBox="0 0 21 21" fill="none" xmlns="http://www.w3.org/2000/svg">
<g id="mais 1" clip-path="url(#clip0_807_595)">
<path id="Vector" d="M19.7692 9.61543H11.3077V1.15389C11.3077 0.929479 11.2185 0.714257 11.0598 0.555572C10.9012 0.396887 10.6859 0.307739 10.4615 0.307739C10.2371 0.307739 10.0219 0.396887 9.8632 0.555572C9.70452 0.714257 9.61537 0.929479 9.61537 1.15389V9.61543H1.15383C0.929418 9.61543 0.714196 9.70458 0.555511 9.86326C0.396826 10.0219 0.307678 10.2372 0.307678 10.4616C0.307678 10.686 0.396826 10.9012 0.555511 11.0599C0.714196 11.2186 0.929418 11.3077 1.15383 11.3077H9.61537V19.7693C9.61537 19.9937 9.70452 20.2089 9.8632 20.3676C10.0219 20.5263 10.2371 20.6154 10.4615 20.6154C10.6859 20.6154 10.9012 20.5263 11.0598 20.3676C11.2185 20.2089 11.3077 19.9937 11.3077 19.7693V11.3077H19.7692C19.9936 11.3077 20.2089 11.2186 20.3675 11.0599C20.5262 10.9012 20.6154 10.686 20.6154 10.4616C20.6154 10.2372 20.5262 10.0219 20.3675 9.86326C20.2089 9.70458 19.9936 9.61543 19.7692 9.61543Z" fill="white"/>
</g>
<defs>
<clipPath id="clip0_807_595">
<rect width="20.3077" height="20.3077" fill="white" transform="translate(0.307678 0.307739)"/>
</clipPath>
</defs>
</svg>
