<svg width="15" height="16" viewBox="0 0 15 16" fill="none" xmlns="http://www.w3.org/2000/svg">
<g id="Group 33">
<g id="Vector">
<mask id="path-1-inside-1_807_770" fill="white">
<path d="M9.92549 11.4539L6.10882 7.62725L9.92549 3.80062L8.75049 2.62512L3.75049 7.62725L8.75049 12.6294L9.92549 11.4539Z"/>
</mask>
<path d="M9.92549 11.4539L11.34 12.8678C12.12 12.0874 12.1207 10.8227 11.3415 10.0415L9.92549 11.4539ZM6.10882 7.62725L4.69277 6.21488C3.91417 6.9955 3.91417 8.25899 4.69277 9.03962L6.10882 7.62725ZM9.92549 3.80062L11.3415 5.21299C12.1207 4.43176 12.12 3.16709 11.34 2.38671L9.92549 3.80062ZM8.75049 2.62512L10.165 1.21121C9.7899 0.835953 9.28107 0.625122 8.75049 0.625122C8.21991 0.625122 7.71107 0.835953 7.33597 1.21121L8.75049 2.62512ZM3.75049 7.62725L2.33597 6.21334C1.55533 6.99432 1.55533 8.26018 2.33597 9.04116L3.75049 7.62725ZM8.75049 12.6294L7.33597 14.0433C7.71107 14.4185 8.21991 14.6294 8.75049 14.6294C9.28107 14.6294 9.7899 14.4185 10.165 14.0433L8.75049 12.6294ZM11.3415 10.0415L7.52488 6.21488L4.69277 9.03962L8.50943 12.8662L11.3415 10.0415ZM7.52488 9.03962L11.3415 5.21299L8.50943 2.38825L4.69277 6.21488L7.52488 9.03962ZM11.34 2.38671L10.165 1.21121L7.33597 4.03903L8.51097 5.21453L11.34 2.38671ZM7.33597 1.21121L2.33597 6.21334L5.165 9.04116L10.165 4.03903L7.33597 1.21121ZM2.33597 9.04116L7.33597 14.0433L10.165 11.2155L5.165 6.21334L2.33597 9.04116ZM10.165 14.0433L11.34 12.8678L8.51097 10.04L7.33597 11.2155L10.165 14.0433Z" fill="#476EE6" mask="url(#path-1-inside-1_807_770)"/>
</g>
</g>
</svg>
