<svg width="16" height="17" viewBox="0 0 16 17" fill="none" xmlns="http://www.w3.org/2000/svg">
<g id="Group 33">
<g id="Vector">
<mask id="path-1-inside-1_807_327" fill="white">
<path d="M10.0275 12.3929L6.18492 8.53994L10.0275 4.687L8.84455 3.50342L3.81055 8.53994L8.84455 13.5765L10.0275 12.3929Z"/>
</mask>
<path d="M10.0275 12.3929L11.4421 13.8067C12.2221 13.0264 12.2228 11.7618 11.4436 10.9806L10.0275 12.3929ZM6.18492 8.53994L4.76881 7.12762C3.99029 7.90823 3.99029 9.17164 4.76881 9.95225L6.18492 8.53994ZM10.0275 4.687L11.4436 6.09932C12.2228 5.3181 12.2221 4.0535 11.4421 3.27314L10.0275 4.687ZM8.84455 3.50342L10.2591 2.08956C9.88401 1.71427 9.37515 1.50342 8.84455 1.50342C8.31394 1.50342 7.80508 1.71427 7.42998 2.08956L8.84455 3.50342ZM3.81055 8.53994L2.39598 7.12608C1.6154 7.90704 1.6154 9.17283 2.39598 9.95379L3.81055 8.53994ZM8.84455 13.5765L7.42998 14.9903C7.80508 15.3656 8.31394 15.5765 8.84455 15.5765C9.37515 15.5765 9.88401 15.3656 10.2591 14.9903L8.84455 13.5765ZM11.4436 10.9806L7.60102 7.12762L4.76881 9.95225L8.61143 13.8052L11.4436 10.9806ZM7.60102 9.95225L11.4436 6.09932L8.61143 3.27468L4.76881 7.12762L7.60102 9.95225ZM11.4421 3.27314L10.2591 2.08956L7.42998 4.91728L8.61297 6.10086L11.4421 3.27314ZM7.42998 2.08956L2.39598 7.12608L5.22511 9.95379L10.2591 4.91728L7.42998 2.08956ZM2.39598 9.95379L7.42998 14.9903L10.2591 12.1626L5.22511 7.12608L2.39598 9.95379ZM10.2591 14.9903L11.4421 13.8067L8.61297 10.979L7.42998 12.1626L10.2591 14.9903Z" fill="white" mask="url(#path-1-inside-1_807_327)"/>
</g>
</g>
</svg>
